<?xml version="1.0" encoding="utf-8"?>
<!-- Generator: Adobe Illustrator 18.1.1, SVG Export Plug-In . SVG Version: 6.00 Build 0)  -->
<!DOCTYPE svg PUBLIC "-//W3C//DTD SVG 1.1//EN" "http://www.w3.org/Graphics/SVG/1.1/DTD/svg11.dtd">
<svg version="1.1" id="Layer_1" xmlns="http://www.w3.org/2000/svg" xmlns:xlink="http://www.w3.org/1999/xlink" x="0px" y="0px"
	 width="250px" height="250px" viewBox="0 0 250 250" style="enable-background:new 0 0 250 250;" xml:space="preserve">
<style type="text/css">
	.st0{fill:#512200;stroke:#512200;stroke-width:7.5246;stroke-miterlimit:10;}
</style>
<g>
	<g>
		<path class="st0" d="M199.8,107.6c2.5,9.6,3.8,19.9,3.8,30.6c0,1.2,0,2.5-0.1,3.7l12.1,4.9l10.1-8.6l7.7,9.4l-15.1,12.9l-15.7-6.5
			c-1.8,14.3-6,27.6-12.1,39.2l2.2-3l11.8,6.9l11.2-7l6.2,10.4l-16.8,10.5l-18.5-11.1c-14.4,23.1-36.8,38-62,38
			c-25.1,0-47.4-14.8-61.9-37.9l-18.2,11l-16.8-10.5l6.2-10.4l11.2,7l11.8-6.9l0.8,1.2c-5.5-11.1-9.4-23.7-11.1-37.1l-15.2,6.3
			l-15.1-12.9l7.7-9.4l10.1,8.6l11.6-4.7c0-1.3-0.1-2.6-0.1-3.9c0-10.7,1.3-21,3.8-30.6L30,106.8l-8.6-18l10.8-5.3L38,95.5l13.6,0.7
			l0.2,4c8.1-24.9,24.1-44.8,44-54.7c0.4-7.6,6.5-13.7,14.1-13.7h33c7.8,0,14.2,6.5,14.2,14.5c0,0.3-0.1,0.7-0.1,1
			c18.7,10.6,33.6,30.1,41.1,54.3l0.3-5.4l13.6-0.7l5.7-12.1l10.8,5.3l-8.6,18L199.8,107.6z"/>
		<polygon class="st0" points="164.7,19 163.1,23.3 160.7,24.4 155.7,25.8 151.5,28.4 145.5,31.8 145.5,28.4 152.2,23.5 157.1,22 
			161.4,19 163.8,13.9 168.6,12.2 167.3,17 		"/>
		<polygon class="st0" points="97.1,25.8 92.1,24.4 89.7,23.3 88.1,19 85.5,17 84.2,12.2 89,13.9 91.4,19 95.7,22 100.6,23.5 
			107.3,28.4 107.3,31.8 101.3,28.4 		"/>
	</g>
</g>
</svg>
