<?xml version="1.0" encoding="utf-8"?>
<!-- Generator: Adobe Illustrator 18.1.1, SVG Export Plug-In . SVG Version: 6.00 Build 0)  -->
<!DOCTYPE svg PUBLIC "-//W3C//DTD SVG 1.1//EN" "http://www.w3.org/Graphics/SVG/1.1/DTD/svg11.dtd">
<svg version="1.1" id="Layer_1" xmlns="http://www.w3.org/2000/svg" xmlns:xlink="http://www.w3.org/1999/xlink" x="0px" y="0px"
	 width="256px" height="256px" viewBox="0 0 256 256" style="enable-background:new 0 0 256 256;" xml:space="preserve">
<style type="text/css">
	.st0{fill:#512200;stroke:#512200;stroke-width:7.5246;stroke-miterlimit:10;}
</style>
<g>
	<g>
		<path class="st0" d="M202.8,110.6c2.5,9.6,3.8,19.9,3.8,30.6c0,1.2,0,2.5-0.1,3.7l12.1,4.9l10.1-8.6l7.7,9.4l-15.1,12.9l-15.7-6.5
			c-1.8,14.3-6,27.6-12.1,39.2l2.2-3l11.8,6.9l11.2-7l6.2,10.4l-16.8,10.5l-18.5-11.1c-14.4,23.1-36.8,38-62,38
			c-25.1,0-47.4-14.8-61.9-37.9l-18.2,11l-16.8-10.5l6.2-10.4l11.2,7l11.8-6.9l0.8,1.2c-5.5-11.1-9.4-23.7-11.1-37.1l-15.2,6.3
			l-15.1-12.9l7.7-9.4l10.1,8.6l11.6-4.7c0-1.3-0.1-2.6-0.1-3.9c0-10.7,1.3-21,3.8-30.6L33,109.8l-8.6-18l10.8-5.3L41,98.5l13.6,0.7
			l0.2,4c8.1-24.9,24.1-44.8,44-54.7c0.4-7.6,6.5-13.7,14.1-13.7h33c7.8,0,14.2,6.5,14.2,14.5c0,0.3-0.1,0.7-0.1,1
			c18.7,10.6,33.6,30.1,41.1,54.3l0.3-5.4l13.6-0.7l5.7-12.1l10.8,5.3l-8.6,18L202.8,110.6z"/>
		<polygon class="st0" points="167.7,22 166.1,26.3 163.7,27.4 158.7,28.8 154.5,31.4 148.5,34.8 148.5,31.4 155.2,26.5 160.1,25 
			164.4,22 166.8,16.9 171.6,15.2 170.3,20 		"/>
		<polygon class="st0" points="100.1,28.8 95.1,27.4 92.7,26.3 91.1,22 88.5,20 87.2,15.2 92,16.9 94.4,22 98.7,25 103.6,26.5 
			110.3,31.4 110.3,34.8 104.3,31.4 		"/>
	</g>
</g>
</svg>
